 <svg version="1.0" xmlns="http://www.w3.org/2000/svg" width="700.000000pt" height="663.000000pt" viewBox="0 0 700.000000 663.000000" preserveAspectRatio="xMidYMid meet">
<metadata>
Created by potrace 1.12, written by Peter Selinger 2001-2015
</metadata>
<g transform="translate(0.000000,663.000000) scale(0.100000,-0.100000)" fill="#000000" stroke="none">
<path d="M2295 6606 c-27 -12 -69 -44 -92 -69 -39 -42 -43 -52 -43 -97 0 -41
9 -67 55 -152 31 -57 77 -146 103 -198 l47 -95 -1 -125 c0 -115 -4 -135 -38
-245 -50 -160 -54 -220 -26 -375 12 -69 25 -155 27 -192 5 -67 5 -68 -30 -103
-26 -26 -43 -35 -69 -35 -77 1 -169 70 -269 203 -113 151 -124 188 -199 660
-27 173 -58 337 -68 365 -46 121 -150 212 -242 212 -82 0 -149 -45 -200 -135
-53 -94 -62 -147 -58 -343 4 -172 5 -180 39 -279 76 -218 191 -363 370 -470
57 -34 132 -87 166 -118 134 -121 263 -332 271 -444 6 -83 -12 -112 -93 -152
-55 -27 -72 -31 -113 -26 -66 8 -204 66 -347 147 -158 90 -211 107 -283 92
-65 -14 -108 -49 -122 -102 -18 -72 21 -167 92 -220 23 -17 52 -25 112 -31
431 -44 441 -46 485 -108 58 -82 2 -149 -177 -213 -324 -114 -515 -153 -877
-178 -344 -24 -459 -59 -588 -179 -93 -88 -120 -146 -125 -272 -2 -53 1 -120
7 -149 18 -82 70 -177 136 -245 53 -54 68 -64 126 -80 50 -13 93 -16 170 -14
90 4 112 8 163 33 79 39 159 120 299 307 197 263 287 330 378 283 41 -21 59
-68 59 -152 0 -93 -46 -188 -127 -262 -55 -50 -211 -134 -353 -190 -153 -60
-326 -175 -362 -240 -23 -41 -20 -137 5 -185 25 -49 99 -127 134 -141 45 -19
110 -17 158 5 85 38 240 205 404 436 103 145 134 181 171 199 101 52 194 8
256 -121 40 -83 40 -83 10 -248 -24 -125 -21 -158 14 -198 45 -51 119 -80 195
-75 86 5 110 24 155 121 42 90 71 124 116 133 22 4 37 0 58 -17 37 -29 36 -36
-59 -369 -154 -541 -274 -834 -490 -1205 -32 -55 -74 -127 -93 -160 -103 -177
-167 -295 -183 -340 -39 -113 -33 -286 14 -369 37 -66 67 -81 156 -81 170 1
323 121 390 306 32 91 50 188 121 679 40 270 63 392 111 585 97 388 213 675
303 752 37 31 67 25 119 -25 56 -55 89 -130 95 -215 6 -98 -9 -186 -68 -389
-73 -252 -77 -358 -15 -458 31 -49 46 -59 107 -76 148 -39 341 4 374 83 19 44
21 234 5 315 -7 30 -48 126 -92 214 l-81 159 4 95 c6 141 53 236 140 281 48
25 108 25 140 -1 44 -34 120 -195 195 -415 84 -246 138 -542 158 -860 20 -315
55 -456 153 -604 57 -87 122 -112 195 -75 86 44 112 96 111 229 0 94 -2 106
-41 200 -23 55 -80 183 -128 285 -102 216 -129 282 -197 485 -107 323 -127
478 -80 616 32 94 75 129 158 129 42 0 51 -4 84 -39 29 -30 46 -65 79 -162 50
-148 126 -307 178 -370 79 -97 136 -113 232 -64 82 41 83 44 79 263 -4 221 -2
226 93 275 49 26 61 28 140 25 105 -5 174 -35 244 -106 107 -111 135 -206 179
-618 20 -188 49 -234 168 -268 65 -19 134 -10 213 29 103 50 129 103 115 234
-11 104 -40 190 -101 296 -52 91 -83 138 -258 392 -112 162 -137 222 -128 313
7 78 35 137 94 196 68 68 112 88 175 80 120 -16 301 -91 403 -166 120 -89 173
-185 244 -450 28 -102 64 -218 82 -258 114 -272 298 -432 450 -392 60 16 159
116 182 184 29 84 42 292 30 467 -9 128 -16 170 -42 248 -75 222 -190 362
-380 460 -131 67 -211 74 -436 39 -121 -18 -148 -20 -208 -10 -144 25 -284
104 -333 188 -61 105 -29 191 115 305 49 38 101 88 117 111 26 37 29 50 29
117 -1 109 -31 152 -178 256 -109 76 -142 145 -113 238 8 26 26 63 40 82 69
90 506 299 734 350 223 51 383 54 641 15 160 -25 202 -25 233 -1 53 42 108
185 108 283 0 60 -30 142 -70 190 -138 167 -605 149 -925 -35 -122 -70 -359
-241 -640 -461 -60 -47 -140 -102 -176 -121 -141 -74 -287 -83 -406 -25 -81
40 -113 84 -113 155 0 107 81 172 290 234 161 48 283 143 340 262 41 87 46
135 25 234 -20 98 -42 138 -87 161 -43 23 -123 23 -168 -1 -19 -10 -100 -82
-180 -160 -89 -87 -163 -150 -191 -163 -95 -46 -197 -16 -288 84 -62 68 -75
110 -68 225 6 91 42 209 157 514 65 173 76 264 41 357 -42 110 -137 168 -288
176 -216 11 -320 -84 -408 -371 -44 -147 -39 -192 49 -432 29 -79 33 -133 12
-174 -21 -39 -101 -110 -149 -131 -97 -42 -157 -34 -229 29 -56 49 -114 71
-190 71 -37 0 -79 -5 -94 -10 -52 -20 -121 -90 -200 -201 -43 -61 -91 -117
-106 -125 -40 -21 -134 -18 -183 6 -55 27 -70 64 -84 210 -15 161 -40 242
-129 419 l-77 153 -5 332 c-4 232 -9 337 -17 352 -24 41 -74 45 -148 10z"></path>
</g>
</svg>